{
  "accessors": [
    {
      "bufferView": 2,
      "componentType": 5126,
      "count": 200,
      "max": [
        0.1753433495759964,
        0.15155628323554993,
        0.050144195556640625
      ],
      "min": [
        -0.18169088661670685,
        -0.16845160722732544,
        -0.01662921905517578
      ],
      "type": "VEC3"
    },
    {
      "bufferView": 2,
      "byteOffset": 2400,
      "componentType": 5126,
      "count": 200,
      "max": [
        0.9684356451034546,
        0.9393328428268433,
        0.9558898210525513
      ],
      "min": [
        -0.9667103886604309,
        -0.9993703365325928,
        -0.9998725652694702
      ],
      "type": "VEC3"
    },
    {
      "bufferView": 1,
      "componentType": 5126,
      "count": 200,
      "max": [
        0.964781641960144,
        0.965422511100769
      ],
      "min": [
        0.03640858083963394,
        0.03659170866012573
      ],
      "type": "VEC2"
    },
    {
      "bufferView": 0,
      "componentType": 5125,
      "count": 1020,
      "type": "SCALAR"
    },
    {
      "bufferView": 2,
      "byteOffset": 4800,
      "componentType": 5126,
      "count": 2263,
      "max": [
        0.6174327731132507,
        0.421353816986084,
        0.6922187805175781
      ],
      "min": [
        -0.6044924259185791,
        -0.951496422290802,
        -0.2867851257324219
      ],
      "type": "VEC3"
    },
    {
      "bufferView": 2,
      "byteOffset": 31956,
      "componentType": 5126,
      "count": 2263,
      "max": [
        0.9999866485595703,
        0.999990701675415,
        0.9998154640197754
      ],
      "min": [
        -0.9999879598617554,
        -0.999934196472168,
        -0.9999988079071045
      ],
      "type": "VEC3"
    },
    {
      "bufferView": 1,
      "byteOffset": 1600,
      "componentType": 5126,
      "count": 2263,
      "max": [
        0.9961241483688354,
        0.9955748319625854
      ],
      "min": [
        0.012726218439638615,
        0.014221608638763428
      ],
      "type": "VEC2"
    },
    {
      "bufferView": 0,
      "byteOffset": 4080,
      "componentType": 5125,
      "count": 10716,
      "type": "SCALAR"
    },
    {
      "bufferView": 2,
      "byteOffset": 59112,
      "componentType": 5126,
      "count": 200,
      "max": [
        0.18156753480434418,
        0.15210846066474915,
        0.049675941467285156
      ],
      "min": [
        -0.17544007301330566,
        -0.16885077953338623,
        -0.016473770141601563
      ],
      "type": "VEC3"
    },
    {
      "bufferView": 2,
      "byteOffset": 61512,
      "componentType": 5126,
      "count": 200,
      "max": [
        0.9671099185943604,
        0.9402931928634644,
        0.955775260925293
      ],
      "min": [
        -0.9686683416366577,
        -0.9993722438812256,
        -0.9999171495437622
      ],
      "type": "VEC3"
    },
    {
      "bufferView": 1,
      "byteOffset": 19704,
      "componentType": 5126,
      "count": 200,
      "max": [
        0.9961546659469604,
        0.9923093318939209
      ],
      "min": [
        0.003814813680946827,
        0.0077211856842041016
      ],
      "type": "VEC2"
    },
    {
      "bufferView": 0,
      "byteOffset": 46944,
      "componentType": 5125,
      "count": 1020,
      "type": "SCALAR"
    }
  ],
  "asset": {
    "extras": {
      "author": "amogusstrikesback2 (https://sketchfab.com/amogusstrikesback2)",
      "license": "CC-BY-4.0 (http://creativecommons.org/licenses/by/4.0/)",
      "source": "https://sketchfab.com/3d-models/red-bird-ef81ff72258b4e3f9955f649fcee3993",
      "title": "red bird"
    },
    "generator": "Sketchfab-16.52.0",
    "version": "2.0"
  },
  "bufferViews": [
    {
      "buffer": 0,
      "byteLength": 51024,
      "name": "floatBufferViews",
      "target": 34963
    },
    {
      "buffer": 0,
      "byteLength": 21304,
      "byteOffset": 51024,
      "byteStride": 8,
      "name": "floatBufferViews",
      "target": 34962
    },
    {
      "buffer": 0,
      "byteLength": 63912,
      "byteOffset": 72328,
      "byteStride": 12,
      "name": "floatBufferViews",
      "target": 34962
    }
  ],
  "buffers": [
    {
      "byteLength": 136240,
      "uri": "scene.bin"
    }
  ],
  "images": [
    {
      "uri": "textures/mat_6.001_baseColor.png"
    },
    {
      "uri": "textures/mat_7.001_baseColor.png"
    }
  ],
  "materials": [
    {
      "doubleSided": true,
      "name": "mat_6.001",
      "pbrMetallicRoughness": {
        "baseColorTexture": {
          "index": 0
        },
        "metallicFactor": 0.0,
        "roughnessFactor": 0.8211145618000169
      }
    },
    {
      "doubleSided": true,
      "name": "mat_7.001",
      "pbrMetallicRoughness": {
        "baseColorTexture": {
          "index": 1
        },
        "metallicFactor": 0.0,
        "roughnessFactor": 0.8211145618000169
      }
    }
  ],
  "meshes": [
    {
      "name": "mesh_65_82.nr_mat_6.001_0",
      "primitives": [
        {
          "attributes": {
            "NORMAL": 1,
            "POSITION": 0,
            "TEXCOORD_0": 2
          },
          "indices": 3,
          "material": 0,
          "mode": 4
        }
      ]
    },
    {
      "name": "mesh_67_83.nr_mat_7.001_0",
      "primitives": [
        {
          "attributes": {
            "NORMAL": 5,
            "POSITION": 4,
            "TEXCOORD_0": 6
          },
          "indices": 7,
          "material": 1,
          "mode": 4
        }
      ]
    },
    {
      "name": "mesh_18_20.nr_mat_6.001_0",
      "primitives": [
        {
          "attributes": {
            "NORMAL": 9,
            "POSITION": 8,
            "TEXCOORD_0": 10
          },
          "indices": 11,
          "material": 0,
          "mode": 4
        }
      ]
    }
  ],
  "nodes": [
    {
      "children": [
        1
      ],
      "matrix": [
        1.0,
        0.0,
        0.0,
        0.0,
        0.0,
        2.220446049250313e-16,
        -1.0,
        0.0,
        0.0,
        1.0,
        2.220446049250313e-16,
        0.0,
        0.0,
        0.0,
        0.0,
        1.0
      ],
      "name": "Sketchfab_model"
    },
    {
      "children": [
        2
      ],
      "matrix": [
        0.009999999776482582,
        0.0,
        0.0,
        0.0,
        0.0,
        0.0,
        0.009999999776482582,
        0.0,
        0.0,
        -0.009999999776482582,
        0.0,
        0.0,
        0.0,
        0.0,
        0.0,
        1.0
      ],
      "name": "b835c89731ed4ee3bbb8d9543ff56dd0.fbx"
    },
    {
      "children": [
        3,
        5,
        7
      ],
      "name": "RootNode"
    },
    {
      "children": [
        4
      ],
      "matrix": [
        100.0,
        0.0,
        0.0,
        0.0,
        0.0,
        -98.16154118698076,
        19.08691452063002,
        0.0,
        0.0,
        -33.978059735870694,
        -174.7447816466813,
        0.0,
        11.334206581115723,
        22.144678115844727,
        57.027320861816406,
        1.0
      ],
      "name": "mesh_65_82.nr"
    },
    {
      "mesh": 0,
      "name": "mesh_65_82.nr_mat_6.001_0"
    },
    {
      "children": [
        6
      ],
      "matrix": [
        100.0,
        0.0,
        0.0,
        0.0,
        0.0,
        -98.16154118698076,
        19.08691452063002,
        0.0,
        0.0,
        -33.978059735870694,
        -174.7447816466813,
        0.0,
        0.049681589007377625,
        11.079606056213379,
        28.931468963623047,
        1.0
      ],
      "name": "mesh_67_83.nr"
    },
    {
      "mesh": 1,
      "name": "mesh_67_83.nr_mat_7.001_0"
    },
    {
      "children": [
        8
      ],
      "matrix": [
        100.0,
        0.0,
        0.0,
        0.0,
        0.0,
        -98.16154118698076,
        19.08691452063002,
        0.0,
        0.0,
        -33.978059735870694,
        -174.7447816466813,
        0.0,
        -9.83912181854248,
        22.55246353149414,
        56.97639465332031,
        1.0
      ],
      "name": "mesh_18_20.nr"
    },
    {
      "mesh": 2,
      "name": "mesh_18_20.nr_mat_6.001_0"
    }
  ],
  "samplers": [
    {
      "magFilter": 9729,
      "minFilter": 9987,
      "wrapS": 10497,
      "wrapT": 10497
    }
  ],
  "scene": 0,
  "scenes": [
    {
      "name": "Sketchfab_Scene",
      "nodes": [
        0
      ]
    }
  ],
  "textures": [
    {
      "sampler": 0,
      "source": 0
    },
    {
      "sampler": 0,
      "source": 1
    }
  ]
}
